<?xml version="1.0" encoding="utf-8"?>
<!-- Generator: Adobe Illustrator 22.0.1, SVG Export Plug-In . SVG Version: 6.00 Build 0)  -->
<svg version="1.1" id="Layer_1" xmlns="http://www.w3.org/2000/svg" xmlns:xlink="http://www.w3.org/1999/xlink" x="0px" y="0px"
	 viewBox="0 0 112 123" style="enable-background:new 0 0 112 123;" xml:space="preserve">
<style type="text/css">
	.st0{fill:#4C50A1;}
</style>
<path class="st0" d="M103.9,78.4C92.7,65.1,75.5,93.1,66.3,99.2c-6.4,4.2-16.1,4.5-22.9,0.5c-9.3-5.5-6.5-18.6,3.4-21.8
	c8.8-2.9,24,6.3,29.6-2.9c6.8-11.4-16.5-14-23.5-13.8c-12.5,0.5-24.5,4.5-31.9,14c-8,10.2-6.1,22.5,2.6,31.7
	c9,8.7,21.9,12,34.8,10.9c3.3-0.3,8.9-1.7,13.1-4C80.1,109.2,106.1,81.1,103.9,78.4z M22.2,68.4c4.3,0.9-4-23.3-4.6-26.6
	c-0.7-4-2.1-9.7-6.1-10.3c-4.6-0.7-5.9,4.6-5,9.2C7.5,45.6,18.2,67.6,22.2,68.4z M58,56c6.7,1,6.2-31.2,6.2-35.6
	c0-3.9,1.5-14.8-3.8-15.8c-7.3-1.4-8,8.2-8.2,13.3C52.6,23.1,51,55,58,56z M74,61.1c7.3,3.1,12.9-29.4,13.7-33.6
	c0.8-4.2,1-13.2-6.3-10.4c-3.6,1.4-4.3,7.3-4.9,10.6C75.6,31.9,68.3,58.7,74,61.1z M38.8,58.4c8.2,0.6,0.5-32-0.2-36.4
	c-0.7-4.4-3.7-13.3-9.8-8.2c-3.1,2.6-1.7,8.6-1.1,12C28.2,30.2,32.4,57.9,38.8,58.4z"/>
</svg>
