<?xml version="1.0" encoding="utf-8"?>
<!-- Generator: Adobe Illustrator 22.0.1, SVG Export Plug-In . SVG Version: 6.00 Build 0)  -->
<svg version="1.1" id="Layer_1" xmlns="http://www.w3.org/2000/svg" xmlns:xlink="http://www.w3.org/1999/xlink" x="0px" y="0px"
	 viewBox="0 0 512 512" style="enable-background:new 0 0 512 512;" xml:space="preserve">
<style type="text/css">
	.st0{fill:#484AB3;}
	.st1{fill:#FFFFFF;}
</style>
<title>front-end-logo-bw</title>
<polygon class="st0" points="71.5,460 30.5,0 481.5,0 440.5,460 255.5,512 "/>
<polygon class="st1" points="291.4,62.3 273.7,130.1 352,130.1 346,200.3 255.1,200.3 237.1,269.3 339.9,269.3 331.4,357.7 
	255.1,378.3 211.6,366.5 194.2,432.9 255.1,449.7 256.4,449.7 396.8,411 427.1,62.3 "/>
<polygon class="st1" points="178.9,357.7 178.9,357.7 171.2,269.3 202.1,269.3 220.1,200.3 165.5,200.3 159.5,130.1 238.6,130.1 
	256.4,62.3 84.4,62.3 114.7,411 161.6,423.9 "/>
</svg>
