<?xml version="1.0" encoding="utf-8"?>
<!-- Generator: Adobe Illustrator 22.0.1, SVG Export Plug-In . SVG Version: 6.00 Build 0)  -->
<svg version="1.1" id="Layer_1" xmlns="http://www.w3.org/2000/svg" xmlns:xlink="http://www.w3.org/1999/xlink" x="0px" y="0px"
	 viewBox="0 0 230 255" style="enable-background:new 0 0 230 255;" xml:space="preserve">
<style type="text/css">
	.st0{fill:#F052EA;}
</style>
<path class="st0" d="M219.9,121.6c-5.6-9.6-13.4-17.3-23.2-23.1c-7.3-4.3-14.9-7-23.5-8.1V59.9c8.6-3.6,13.9-11.7,13.9-21.1
	c0-12.8-10.3-23.2-23.1-23.2S140.8,26,140.8,38.8c0,9.4,5,17.4,13.6,21.1v30.5c-6.9,1-14,3.1-20.4,6.4
	c-13.3-10.1-56.7-43.1-82.1-62.4c0.6-2.2,1.1-4.4,1.1-6.8C52.8,13.5,41.3,2,27.2,2S1.5,13.5,1.5,27.7S13,53.4,27.2,53.4
	c4.8,0,9.3-1.4,13.2-3.7l5.4,4.1l73.7,53.1c-3.9,3.6-7.5,7.6-10.4,12.2c-5.9,9.3-9.5,19.6-9.5,30.7v2.3c0,7.8,1.5,15.3,4,22.2
	c2.2,6.1,5.5,11.6,9.6,16.6l-24.5,24.5c-7.2-2.7-15.4-0.9-20.8,4.6c-3.7,3.7-5.8,8.8-5.8,14c0,5.3,2.1,10.3,5.8,14s8.8,5.8,14,5.8
	c5.3,0,10.3-2.1,14-5.8s5.8-8.8,5.8-14c0-2.1-0.3-4.1-0.9-6l25.3-25.3c3.5,2.4,7.2,4.4,11.2,6.2c7.9,3.4,16.7,5.5,26.3,5.5h1.8
	c10.6,0,20.6-2.5,30-7.6c9.9-5.4,17.7-12.7,23.5-22.1c5.9-9.4,9.1-19.8,9.1-31.3v-0.6C228,141.6,225.4,131.2,219.9,121.6
	L219.9,121.6z M189,174.7c-6.9,7.6-14.8,12.3-23.7,12.3h-1.5c-5.1,0-10.1-1.4-15-4c-5.5-2.8-9.7-6.8-13.1-11.9
	c-3.5-5-5.5-10.5-5.5-16.2v-1.8c0-5.7,1.1-11.1,3.8-16.2c2.9-5.6,6.9-9.9,12.2-13.3c5.2-3.4,10.7-5.1,16.9-5.1h0.6
	c5.6,0,10.9,1.1,15.9,3.7c5.1,2.7,9.3,6.5,12.5,11.4c3.1,4.9,5,10.2,5.6,16c0.1,1.2,0.1,2.4,0.1,3.6C198,160.9,195,168.1,189,174.7
	L189,174.7z"/>
</svg>
