<?xml version="1.0" encoding="utf-8"?>
<!-- Generator: Adobe Illustrator 22.0.1, SVG Export Plug-In . SVG Version: 6.00 Build 0)  -->
<svg version="1.1" id="Social_Icons" xmlns="http://www.w3.org/2000/svg" xmlns:xlink="http://www.w3.org/1999/xlink" x="0px"
	 y="0px" viewBox="0 0 128 128" style="enable-background:new 0 0 128 128;" xml:space="preserve">
<style type="text/css">
	.st0{fill:none;}
	.st1{fill:#484AB3;}
</style>
<g id="_x37__stroke">
	<g id="Shopify">
		<rect class="st0" width="128" height="128"/>
		<path id="Shopify_1_" class="st1" d="M70.4,19.6c0-0.4,0-0.9,0-1.3c0-4.1-0.6-7.4-1.5-10c3.6,0.5,6.1,4.6,7.6,9.4
			C74.8,18.2,72.7,18.9,70.4,19.6z M62.4,60.2c0,0-4.3-2.3-9.5-2.3c-7.6,0-8,4.8-8,6c0,6.6,17.2,9.2,17.2,24.7
			c0,12.2-7.7,20.1-18.1,20.1c-12.5,0-18.8-7.8-18.8-7.8l3.3-11.1c0,0,6.6,5.7,12.1,5.7c3.6,0,5.1-2.9,5.1-4.9
			c0-8.6-14.1-9-14.1-23.2c0-12,8.5-23.5,25.8-23.5c6.6,0,9.9,1.9,9.9,1.9L62.4,60.2z M59.6,4.4c0.7,0,1.4,0.2,2.1,0.7
			c-5.3,2.5-10.9,8.8-13.3,21.3c-3.5,1.1-6.9,2.1-10,3.1C41.2,20,47.8,4.4,59.6,4.4z M66.1,20.2c0,0.3,0,0.5,0,0.7
			c-4,1.2-8.3,2.6-12.7,4c2.4-9.5,7-14.1,11-15.8C65.5,11.6,66.1,15.3,66.1,20.2z M85.1,15.1c-0.3,0-0.5,0.1-0.6,0.1
			c-0.1,0-1.5,0.5-3.8,1.2C78.3,9.8,74.3,3.8,67.3,3.8c-0.2,0-0.4,0-0.6,0C64.7,1.2,62.2,0,60,0C43.6,0,35.8,20.6,33.3,31.1
			c-6.4,2-10.9,3.4-11.5,3.6c-3.6,1.1-3.7,1.2-4.1,4.6c-0.4,2.6-9.7,75-9.7,75L80.6,128l0.1,0L85.1,15.1z M90.3,18.7
			c2.1,2.1,4.5,4.5,4.5,4.5s9.8,0.7,10.2,0.8c0.5,0,1,0.4,1.1,1c0.1,0.6,13.9,94.5,13.9,94.5l-33.9,7.4L90.3,18.7z"/>
	</g>
</g>
</svg>
