<?xml version="1.0" encoding="utf-8"?>
<!-- Generator: Adobe Illustrator 22.0.1, SVG Export Plug-In . SVG Version: 6.00 Build 0)  -->
<svg version="1.1" id="Layer_1" xmlns="http://www.w3.org/2000/svg" xmlns:xlink="http://www.w3.org/1999/xlink" x="0px" y="0px"
	 viewBox="0 0 56.7 56.7" style="enable-background:new 0 0 56.7 56.7;" xml:space="preserve">
<style type="text/css">
	.st0{fill:#484AB3;}
</style>
<path class="st0" d="M3.6,29.4c0,9.7,5.7,18.2,13.9,22.2L5.7,19.3C4.4,22.4,3.6,25.8,3.6,29.4z M44.8,28.1c0-3-1.1-5.2-2-6.8
	c-1.2-2-2.4-3.7-2.4-5.8c0-2.3,1.7-4.4,4.1-4.4c0.1,0,0.2,0,0.3,0c-4.4-4-10.2-6.5-16.6-6.5C19.6,4.7,12,9.1,7.6,15.8
	c0.6,0,1.1,0,1.6,0c2.6,0,6.6-0.3,6.6-0.3c1.3-0.1,1.5,1.9,0.2,2c0,0-1.3,0.2-2.8,0.2l9,26.7l5.4-16.2l-3.8-10.5
	c-1.3-0.1-2.6-0.2-2.6-0.2c-1.3-0.1-1.2-2.1,0.2-2c0,0,4.1,0.3,6.5,0.3c2.6,0,6.6-0.3,6.6-0.3c1.3-0.1,1.5,1.9,0.2,2
	c0,0-1.3,0.2-2.8,0.2l8.9,26.5l2.5-8.2C44.2,32.9,44.8,30.2,44.8,28.1z M28.6,31.5L21.3,53c2.2,0.6,4.5,1,7,1c2.9,0,5.6-0.5,8.2-1.4
	c-0.1-0.1-0.1-0.2-0.2-0.3L28.6,31.5z M49.8,17.5c0.1,0.8,0.2,1.6,0.2,2.5c0,2.5-0.5,5.3-1.9,8.8l-7.5,21.7
	c7.3-4.3,12.2-12.2,12.2-21.3C52.8,25.1,51.7,21,49.8,17.5z"/>
</svg>
